<svg xmlns:rdf="http://www.w3.org/1999/02/22-rdf-syntax-ns#" xmlns="http://www.w3.org/2000/svg" height="100" width="100" version="1.0" xmlns:cc="http://creativecommons.org/ns#" xmlns:xlink="http://www.w3.org/1999/xlink" xmlns:dc="http://purl.org/dc/elements/1.1/">
	<defs>
		<radialGradient id="b" gradientUnits="userSpaceOnUse" cy="22.942" cx="29.116" gradientTransform="matrix(2.429,0,0,2.4588,-20.763,-6.2632)" r="19.175">
			<stop offset="0"/>
			<stop stop-opacity=".49804" offset=".86260"/>
			<stop stop-opacity="0" offset="1"/>
		</radialGradient>
		<linearGradient id="d" y2="186.7" gradientUnits="userSpaceOnUse" x2="-76.969" y1="108.45" x1="-122.2">
			<stop stop-color="#ebebeb" offset="0"/>
			<stop stop-color="#c3c3c3" offset="1"/>
		</linearGradient>
		<linearGradient id="e" y2="113.94" gradientUnits="userSpaceOnUse" x2="-119.06" y1="182.05" x1="-76.931">
			<stop stop-color="#404040" offset="0"/>
			<stop stop-color="#6d6d6d" offset="1"/>
		</linearGradient>
		<linearGradient id="f" y2="183.91" gradientUnits="userSpaceOnUse" x2="-79.02" y1="108.66" x1="-118.7">
			<stop stop-color="#fafafa" offset="0"/>
			<stop stop-color="#ebebeb" offset="1"/>
		</linearGradient>
		<linearGradient id="g" y2="106.51" gradientUnits="userSpaceOnUse" x2="-118.47" y1="189.08" x1="-75.284">
			<stop stop-color="#707070" offset="0"/>
			<stop stop-color="#c6c6c6" offset="1"/>
		</linearGradient>
		<linearGradient id="h" y2="184.47" gradientUnits="userSpaceOnUse" x2="-75.929" y1="108.97" x1="-120.58">
			<stop stop-color="#242424" offset="0"/>
			<stop stop-color="#f0f0f0" offset="1"/>
		</linearGradient>
		<linearGradient id="i" y2="105.9" gradientUnits="userSpaceOnUse" x2="-120.55" y1="189.06" x1="-75.575">
			<stop stop-color="#262626" offset="0"/>
			<stop stop-color="#f0f0f0" offset="1"/>
		</linearGradient>
		<linearGradient id="j" y2="184.75" gradientUnits="userSpaceOnUse" x2="-77.143" y1="106.95" x1="-118.47">
			<stop stop-color="#727272" offset="0"/>
			<stop stop-color="#dedede" offset="1"/>
		</linearGradient>
		<radialGradient id="c" cx="27.918" gradientUnits="userSpaceOnUse" cy="22.986" r="18.675" gradientTransform="matrix(1.0839 0 0 .73716 -2.3809 5.9971)">
			<stop stop-color="#fff" stop-opacity="0" offset="0"/>
			<stop stop-color="#fff" stop-opacity="0" offset="0.8"/>
			<stop stop-color="#808080" stop-opacity=".78431" offset="0.95"/>
			<stop stop-color="#202020" stop-opacity=".92157" offset="1"/>
		</radialGradient>
		<radialGradient id="a" cx="50.382" gradientUnits="userSpaceOnUse" cy="49.794" r="1.6566">
			<stop stop-color="#3c3c3c" offset="0"/>
			<stop stop-color="#373737" offset=".69572"/>
			<stop stop-color="#3c3c3c" offset=".83614"/>
			<stop stop-color="#808080" offset="1"/>
		</radialGradient>
	</defs>
	<ellipse opacity=".75" rx="48.002" ry="48.002" cy="50.147" cx="49.962" fill="url(#b)"/>
	<g transform="translate(-.08888 .19803)">
		<ellipse rx="18.675" transform="matrix(0,-2.1425,3.1502,0,-22.221,112.33)" ry="12.701" cy="22.942" cx="29.116" fill="#fafafa"/>
	</g>
	<g transform="translate(-.34335 .1113)">
		<circle stroke-linejoin="round" cx="41.573" stroke-linecap="round" transform="matrix(.17732 0 0 .17732 42.944 9.1604)" stroke="#000" cy="39.566" r="4.4795" stroke-width=".56396" fill="#b2e4cd"/>
		<path d="m54.245 15.649-0.171 1.492" stroke="#000" stroke-linecap="square" stroke-width=".2" fill="none"/>
		<circle stroke-linejoin="round" cx="41.573" stroke-linecap="round" transform="matrix(.15356 .08866 -.08866 .15356 64.379 10.953)" stroke="#000" cy="39.566" r="4.4795" stroke-width=".56396" fill="#b2e4cd"/>
		<circle stroke-linejoin="round" cx="41.573" stroke-linecap="round" transform="matrix(.08866 .15356 -.15356 .08866 82.027 23.214)" stroke="#000" cy="39.566" r="4.4795" stroke-width=".56396" fill="#b2e4cd"/>
		<circle stroke-linejoin="round" cx="41.573" stroke-linecap="round" transform="matrix(0 .17732 -.17732 0 91.183 42.69)" stroke="#000" cy="39.566" r="4.4795" stroke-width=".56396" fill="#b2e4cd"/>
		<circle stroke-linejoin="round" cx="41.573" stroke-linecap="round" transform="matrix(-.08866 .15356 -.15356 -.08866 89.382 64.154)" stroke="#000" cy="39.566" r="4.4795" stroke-width=".56396" fill="#b2e4cd"/>
		<circle stroke-linejoin="round" cx="41.573" stroke-linecap="round" transform="matrix(-.15356 .08866 -.08866 -.15356 77.094 81.754)" stroke="#000" cy="39.566" r="4.4795" stroke-width=".56396" fill="#b2e4cd"/>
		<circle stroke-linejoin="round" cx="41.573" stroke-linecap="round" transform="matrix(-.17732 0 0 -.17732 57.619 90.911)" stroke="#000" cy="39.566" r="4.4795" stroke-width=".56396" fill="#b2e4cd"/>
		<circle stroke-linejoin="round" cx="41.573" stroke-linecap="round" transform="matrix(-.15356 -.08866 .08866 -.15356 36.213 89.085)" stroke="#000" cy="39.566" r="4.4795" stroke-width=".56396" fill="#b2e4cd"/>
		<circle stroke-linejoin="round" cx="41.573" stroke-linecap="round" transform="matrix(-.08866 -.15356 .15356 -.08866 18.583 76.806)" stroke="#000" cy="39.566" r="4.4795" stroke-width=".56396" fill="#b2e4cd"/>
		<circle stroke-linejoin="round" cx="41.573" stroke-linecap="round" transform="matrix(.15356 -.08866 .08866 .15356 23.486 18.325)" stroke="#000" cy="39.566" r="4.4795" stroke-width=".56396" fill="#b2e4cd"/>
		<circle stroke-linejoin="round" cx="41.573" stroke-linecap="round" transform="matrix(.08866 -.15356 .15356 .08866 11.219 35.989)" stroke="#000" cy="39.566" r="4.4795" stroke-width=".56396" fill="#b2e4cd"/>
		<circle stroke-linejoin="round" cx="41.573" stroke-linecap="round" transform="matrix(0 -.17732 .17732 0 9.4277 57.424)" stroke="#000" cy="39.566" r="4.4795" stroke-width=".56396" fill="#b2e4cd"/>
		<path d="m57.861 16.257-0.328 1.466" stroke="#000" stroke-linecap="square" stroke-width=".2" fill="none"/>
		<path d="m61.262 17.201-0.474 1.425" stroke="#000" stroke-linecap="square" stroke-width=".2" fill="none"/>
		<path d="m64.65 18.532-0.622 1.367" stroke="#000" stroke-linecap="square" stroke-width=".2" fill="none"/>
		<path d="m70.789 22.127-0.888 1.211" stroke="#000" stroke-linecap="square" stroke-width=".2" fill="none"/>
		<path d="m73.627 24.448-1.011 1.111" stroke="#000" stroke-linecap="square" stroke-width=".2" fill="none"/>
		<path d="m76.112 26.955-1.118 1.002" stroke="#000" stroke-linecap="square" stroke-width=".2" fill="none"/>
		<path d="m78.394 29.791-1.218 0.878" stroke="#000" stroke-linecap="square" stroke-width=".2" fill="none"/>
		<path d="m81.925 35.92-1.371 0.612" stroke="#000" stroke-linecap="square" stroke-width=".2" fill="none"/>
		<path d="m83.242 39.341-1.428 0.465" stroke="#000" stroke-linecap="square" stroke-width=".2" fill="none"/>
		<path d="m84.161 42.75-1.468 0.317" stroke="#000" stroke-linecap="square" stroke-width=".2" fill="none"/>
		<path d="m84.74 46.343-1.492 0.161" stroke="#000" stroke-linecap="square" stroke-width=".2" fill="none"/>
		<path d="m84.759 53.576-1.493-0.153" stroke="#000" stroke-linecap="square" stroke-width=".2" fill="none"/>
		<path d="m84.193 57.198-1.469-0.31" stroke="#000" stroke-linecap="square" stroke-width=".2" fill="none"/>
		<path d="m83.289 60.611-1.43-0.458" stroke="#000" stroke-linecap="square" stroke-width=".2" fill="none"/>
		<path d="m81.999 64.013-1.374-0.605" stroke="#000" stroke-linecap="square" stroke-width=".2" fill="none"/>
		<path d="m78.457 70.22-1.22-0.875" stroke="#000" stroke-linecap="square" stroke-width=".2" fill="none"/>
		<path d="m76.166 73.083-1.121-0.999" stroke="#000" stroke-linecap="square" stroke-width=".2" fill="none"/>
		<path d="m73.687 75.595-1.014-1.108" stroke="#000" stroke-linecap="square" stroke-width=".2" fill="none"/>
		<path d="m70.876 77.907-0.892-1.208" stroke="#000" stroke-linecap="square" stroke-width=".2" fill="none"/>
		<path d="m64.628 81.576-0.621-1.367" stroke="#000" stroke-linecap="square" stroke-width=".2" fill="none"/>
		<path d="m61.214 82.913-0.473-1.425" stroke="#000" stroke-linecap="square" stroke-width=".2" fill="none"/>
		<path d="m57.81 83.852-0.325-1.466" stroke="#000" stroke-linecap="square" stroke-width=".2" fill="none"/>
		<path d="m54.221 84.452-0.169-1.492" stroke="#000" stroke-linecap="square" stroke-width=".2" fill="none"/>
		<path d="m36.533 18.286 0.598 1.378" stroke="#000" stroke-linecap="square" stroke-width=".2" fill="none"/>
		<path d="m39.97 17.007 0.448 1.433" stroke="#000" stroke-linecap="square" stroke-width=".2" fill="none"/>
		<path d="m43.388 16.125 0.3 1.472" stroke="#000" stroke-linecap="square" stroke-width=".2" fill="none"/>
		<path d="m46.987 15.586 0.144 1.494" stroke="#000" stroke-linecap="square" stroke-width=".2" fill="none"/>
		<path d="m22.462 29.482 1.208 0.892" stroke="#000" stroke-linecap="square" stroke-width=".2" fill="none"/>
		<path d="m24.793 26.652 1.107 1.015" stroke="#000" stroke-linecap="square" stroke-width=".2" fill="none"/>
		<path d="m27.308 24.175 0.998 1.122" stroke="#000" stroke-linecap="square" stroke-width=".2" fill="none"/>
		<path d="m30.151 21.903 0.875 1.221" stroke="#000" stroke-linecap="square" stroke-width=".2" fill="none"/>
		<path d="m15.9 46.255 1.493 0.164" stroke="#000" stroke-linecap="square" stroke-width=".2" fill="none"/>
		<path d="m16.494 42.636 1.467 0.322" stroke="#000" stroke-linecap="square" stroke-width=".2" fill="none"/>
		<path d="m17.425 39.231 1.426 0.469" stroke="#000" stroke-linecap="square" stroke-width=".2" fill="none"/>
		<path d="m18.742 35.839 1.369 0.616" stroke="#000" stroke-linecap="square" stroke-width=".2" fill="none"/>
		<path d="m18.673 64.106 1.373-0.61" stroke="#000" stroke-linecap="square" stroke-width=".2" fill="none"/>
		<path d="m17.364 60.681 1.429-0.461" stroke="#000" stroke-linecap="square" stroke-width=".2" fill="none"/>
		<path d="m16.453 57.27 1.469-0.313" stroke="#000" stroke-linecap="square" stroke-width=".2" fill="none"/>
		<path d="m15.882 53.676 1.493-0.157" stroke="#000" stroke-linecap="square" stroke-width=".2" fill="none"/>
		<path d="m30.021 78.102 0.88-1.217" stroke="#000" stroke-linecap="square" stroke-width=".2" fill="none"/>
		<path d="m27.168 75.798 1.004-1.116" stroke="#000" stroke-linecap="square" stroke-width=".2" fill="none"/>
		<path d="m24.667 73.307 1.112-1.008" stroke="#000" stroke-linecap="square" stroke-width=".2" fill="none"/>
		<path d="m22.367 70.487 1.212-0.887" stroke="#000" stroke-linecap="square" stroke-width=".2" fill="none"/>
		<path d="m46.9 84.504 0.148-1.494" stroke="#000" stroke-linecap="square" stroke-width=".2" fill="none"/>
		<path d="m43.275 83.95 0.306-1.47" stroke="#000" stroke-linecap="square" stroke-width=".2" fill="none"/>
		<path d="m39.86 83.057 0.453-1.432" stroke="#000" stroke-linecap="square" stroke-width=".2" fill="none"/>
		<path d="m36.453 81.777 0.601-1.376" stroke="#000" stroke-linecap="square" stroke-width=".2" fill="none"/>
		<path d="m65.42 30.03v-5.812l-1.542 0.962v-0.968c0.39-0.196 0.804-0.467 1.242-0.812 0.442-0.345 0.783-0.673 1.025-0.984h0.31v7.614h-1.035"/>
		<path d="m73.162 39.387v-0.207l2.376-3.639c0.497-0.763 0.745-1.41 0.745-1.941 0-0.701-0.395-1.051-1.185-1.051-0.28 0-0.542 0.07-0.787 0.222-0.245 0.145-0.423 0.33-0.533 0.554l-0.668-0.548c0.118-0.339 0.347-0.608 0.689-0.808 0.345-0.2 0.761-0.3 1.247-0.3 0.728 0 1.298 0.169 1.708 0.507 0.411 0.335 0.616 0.809 0.616 1.424 0 0.569-0.272 1.287-0.818 2.153l-1.703 2.702h2.972v0.932h-4.659"/>
		<path d="m78.053 53.485 0.497-0.797c0.338 0.373 0.766 0.559 1.284 0.559 0.959 0 1.439-0.469 1.439-1.408 0-0.427-0.14-0.774-0.42-1.04-0.279-0.269-0.65-0.404-1.113-0.404h-0.08v-0.838h0.05c0.877 0 1.315-0.387 1.315-1.16 0-0.807-0.412-1.211-1.237-1.211-0.449 0-0.806 0.15-1.072 0.45l-0.46-0.704c0.321-0.417 0.857-0.626 1.609-0.626 0.663 0 1.203 0.178 1.621 0.533 0.417 0.352 0.626 0.804 0.626 1.356 0 0.421-0.117 0.794-0.352 1.118-0.231 0.325-0.504 0.542-0.818 0.653 0.435 0.141 0.78 0.383 1.035 0.724 0.259 0.338 0.389 0.749 0.389 1.232 0 0.704-0.223 1.248-0.668 1.631s-1.07 0.574-1.874 0.574c-0.338 0-0.669-0.06-0.994-0.186-0.324-0.128-0.581-0.28-0.771-0.456"/>
		<path d="m76.551 66.596v2.065h-0.984v-2.065h-3.452v-0.59l4.073-4.959h0.363v4.752h0.766v0.797h-0.766m-0.984-3.484-2.226 2.687h2.226v-2.687"/>
		<path d="m62.882 74.211-0.352-0.244v-3.67h3.773v0.88h-2.79v1.843c0.255-0.19 0.58-0.285 0.973-0.285 0.704 0 1.241 0.211 1.61 0.632 0.373 0.421 0.559 1.02 0.559 1.796 0 1.901-0.847 2.852-2.542 2.852-0.707 0-1.294-0.197-1.759-0.59l0.398-0.864c0.469 0.383 0.921 0.574 1.356 0.574 0.973 0 1.46-0.607 1.46-1.822 0-1.132-0.48-1.698-1.439-1.698-0.462 0-0.878 0.199-1.247 0.596"/>
		<path d="m51.107 73.707 0.502 0.554c-0.303 0.121-0.743 0.529-1.319 1.226-0.573 0.694-0.891 1.229-0.953 1.605 0.287-0.276 0.685-0.414 1.196-0.414 0.669 0 1.206 0.214 1.61 0.642 0.403 0.428 0.605 1.016 0.605 1.765 0 0.742-0.209 1.339-0.626 1.791-0.414 0.452-0.935 0.678-1.563 0.678-1.664 0-2.495-1.103-2.495-3.308 0-0.918 0.324-1.856 0.973-2.815 0.652-0.963 1.342-1.538 2.07-1.724m-1.956 5.347c0 1.08 0.443 1.62 1.33 1.62 0.373 0 0.666-0.14 0.88-0.419 0.217-0.283 0.326-0.656 0.326-1.118 0-0.48-0.114-0.863-0.342-1.149-0.227-0.287-0.521-0.43-0.879-0.43-0.877 0-1.315 0.499-1.315 1.496"/>
		<path d="m35.793 78.029h-1.149c0.255-0.811 0.685-1.883 1.288-3.215 0.604-1.335 1.156-2.474 1.657-3.416h-3.577v-0.983h4.917v0.403l-0.667 1.315c-0.225 0.445-0.459 0.934-0.704 1.465s-0.485 1.073-0.72 1.625c-0.234 0.552-0.44 1.065-0.616 1.538-0.176 0.472-0.319 0.895-0.429 1.268"/>
		<path d="m25.1 64.442c-0.321-0.172-0.583-0.412-0.787-0.719-0.203-0.307-0.305-0.625-0.305-0.953 0-0.562 0.19-1.007 0.569-1.335 0.383-0.328 0.877-0.492 1.481-0.492 0.652 0 1.157 0.164 1.516 0.492s0.538 0.775 0.538 1.341c0 0.331-0.108 0.669-0.326 1.014-0.217 0.342-0.469 0.594-0.755 0.756 0.911 0.511 1.366 1.182 1.366 2.013 0 0.701-0.21 1.244-0.631 1.631-0.421 0.383-0.999 0.574-1.734 0.574-1.532 0-2.299-0.735-2.299-2.205 0-0.424 0.132-0.842 0.394-1.252 0.262-0.411 0.586-0.699 0.973-0.865m1.268-0.321c0.469-0.441 0.704-0.898 0.704-1.371 0-0.283-0.09-0.508-0.285-0.673-0.186-0.169-0.429-0.254-0.729-0.254-0.677 0-1.015 0.313-1.015 0.937 0 0.463 0.442 0.916 1.325 1.361m-0.461 0.772c-0.759 0.41-1.138 0.966-1.138 1.666 0 0.377 0.117 0.692 0.352 0.948 0.234 0.252 0.538 0.377 0.911 0.377 0.386 0 0.704-0.124 0.952-0.372 0.252-0.249 0.378-0.566 0.378-0.953 0-0.279-0.09-0.541-0.259-0.786-0.172-0.249-0.571-0.542-1.196-0.88"/>
		<path d="m20.261 54.27-0.502-0.554c0.301-0.12 0.739-0.528 1.315-1.221 0.58-0.694 0.899-1.229 0.958-1.605-0.283 0.273-0.682 0.409-1.196 0.409-0.669 0-1.206-0.214-1.61-0.642-0.403-0.428-0.605-1.016-0.605-1.765 0-0.742 0.207-1.339 0.621-1.791 0.417-0.452 0.94-0.678 1.568-0.678 1.663 0 2.495 1.103 2.495 3.308 0 0.918-0.326 1.858-0.978 2.821-0.649 0.959-1.337 1.532-2.066 1.718m1.957-5.347c0-1.08-0.443-1.62-1.33-1.62-0.373 0-0.668 0.142-0.885 0.425-0.214 0.279-0.321 0.65-0.321 1.112 0 0.48 0.114 0.863 0.341 1.15 0.228 0.286 0.521 0.429 0.88 0.429 0.877 0 1.315-0.498 1.315-1.496"/>
		<path d="m25.346 39.459v-5.812l-1.543 0.962v-0.968c0.39-0.196 0.804-0.467 1.243-0.812 0.441-0.345 0.783-0.673 1.025-0.984h0.31v7.614h-1.035"/>
		<path d="m26.996 35.437c0-1.09 0.221-1.979 0.662-2.665 0.442-0.687 1.063-1.03 1.864-1.03 0.793 0 1.389 0.286 1.785 0.859 0.401 0.573 0.601 1.574 0.601 3.002 0 1.229-0.209 2.197-0.626 2.904-0.418 0.704-1.029 1.056-1.833 1.056s-1.415-0.285-1.832-0.854c-0.414-0.57-0.621-1.66-0.621-3.272m1.035 0.09c0 2.101 0.449 3.152 1.346 3.152 0.514 0 0.892-0.233 1.133-0.699 0.242-0.466 0.363-1.282 0.363-2.448 0-0.804-0.05-1.394-0.14-1.77-0.09-0.377-0.243-0.661-0.45-0.854-0.207-0.194-0.47-0.29-0.787-0.29-0.977 0-1.465 0.969-1.465 2.909"/>
		<path d="m47.865 26.08v-5.813l-1.543 0.963v-0.968c0.39-0.197 0.804-0.467 1.243-0.813 0.441-0.345 0.783-0.672 1.024-0.983h0.311v7.614h-1.035"/>
		<path d="m49.882 26.08v-0.207l2.376-3.639c0.497-0.762 0.745-1.409 0.745-1.941 0-0.7-0.395-1.051-1.185-1.051-0.279 0-0.542 0.07-0.787 0.223-0.245 0.145-0.422 0.33-0.533 0.554l-0.668-0.549c0.118-0.338 0.347-0.607 0.689-0.807 0.345-0.2 0.761-0.3 1.247-0.301 0.728 0 1.298 0.17 1.708 0.508 0.411 0.334 0.616 0.809 0.616 1.423 0 0.57-0.272 1.287-0.817 2.153l-1.703 2.702h2.971v0.932h-4.659"/>
		<path d="m34.29 29.92v-5.813l-1.543 0.963v-0.968c0.39-0.197 0.804-0.467 1.243-0.813 0.441-0.345 0.783-0.672 1.024-0.983h0.311v7.614h-1.035"/>
		<path d="m37.601 29.92v-5.813l-1.543 0.963v-0.968c0.39-0.197 0.804-0.467 1.242-0.813 0.442-0.345 0.784-0.672 1.025-0.983h0.311v7.614h-1.035"/>
	</g>
	<g transform="translate(-.08881 .20366)">
		<ellipse opacity=".75" rx="18.675" transform="matrix(-1.4827,-1.5466,2.274,-2.1801,41.051,144.99)" ry="12.701" cy="22.942" cx="29.116" fill="url(#c)"/>
	</g>
	<g transform="matrix(-.43837 .89879 -.89879 -.43837 50.096 51.578)">
		<path d="m-5.8867-0.5625h4.3242s0.378-1.0938 1.5625-1.0938c1.2032 0 1.5508 1.0938 1.5508 1.0938h15.433v1.1367h-15.433s-0.3749 1.081-1.5508 1.081c-1.1719 0-1.5625-1.081-1.5625-1.081h-4.3242v-1.1367z" fill-opacity=".12549" fill-rule="evenodd"/>
	</g>
	<g transform="matrix(-.43836 .8988 -.8988 -.43836 49.703 51.038)">
		<g transform="translate(-46.983,-47.214)">
			<rect height="1.1435" width="22.87" y="46.648" x="41.1"/>
			<rect height=".65342" width="7.3837" y="46.887" x="56.36" fill="#b2e4cd"/>
		</g>
	</g>
	<g transform="matrix(.891 .45399 -.45399 .891 29.324 40.581)">
		<rect fill-opacity=".12549" height="1.1435" width="33.516" y="-.56984" x="-5.9819"/>
	</g>
	<g transform="matrix(-.89102 -.45399 .45399 -.89102 48.216 49.297)">
		<g transform="translate(-47.082,-47.175)">
			<rect height="1.1435" width="33.516" y="46.605" x="41.1"/>
			<rect height=".65342" width="14.071" y="46.838" x="60.312" fill="#b2e4cd"/>
		</g>
	</g>
	<g transform="translate(-.03809 .14722)">
		<circle cx="50.305" transform="translate(-.30491 .27178)" cy="49.728" r="1.6566" fill="url(#a)"/>
	</g>
	<g transform="translate(-.037 .1475)">
		<g stroke-linejoin="round" transform="matrix(.74631 0 0 .74631 124.63 -61.947)" stroke-linecap="square" fill="none">
			<circle cx="-100" stroke="url(#j)" cy="150" r="50" stroke-width=".66996"/>
			<circle cx="-100" stroke="url(#i)" cy="150" r="51.5" stroke-width=".66996"/>
			<ellipse rx="55.004" ry="55" stroke="url(#h)" cy="150" cx="-100" stroke-width=".66996"/>
			<ellipse rx="56.504" ry="56.5" stroke="url(#g)" cy="150" cx="-100" stroke-width=".66996"/>
			<ellipse rx="50.746" ry="50.753" stroke="url(#f)" cy="150" cx="-100" stroke-width="1.4739"/>
			<ellipse rx="53.254" ry="53.25" stroke="url(#e)" cy="150" cx="-100" stroke-width="4.1538"/>
			<ellipse rx="55.746" ry="55.75" stroke="url(#d)" cy="150" cx="-100" stroke-width="1.4739"/>
		</g>
	</g>
</svg>
