<svg viewBox="0 0 100 100">
 <path d="m49.03125 9.9375c-21.437648 0.543731-38.727315 17.996403-39 39.5-0.002181 0.172029 0 0.327457 0 0.5s-0.002181 0.359221 0 0.53125c0.065764 5.186074 1.137442 10.123536 3 14.65625 8.656995-32.861415 34.335538-46.183854 53.6875-51.5625-4.784255-2.199475-10.051212-3.48363-15.625-3.625h-2.0625zm40.9375 37.1875c-6.361623 28.277465-28.301361 38.614963-47.59375 42.09375 2.321552 0.451756 4.71052 0.718986 7.15625 0.75h1.03125c21.503601-0.272686 38.956269-17.562356 39.5-39 0.0087-0.343002 0-0.686163 0-1.03125s0.0087-0.688248 0-1.03125c-0.015224-0.600254-0.052325-1.187821-0.09375-1.78125z" fill-opacity=".24705882" fill="#dde5f2"/>
</svg>

